<svg width="19" height="19" viewBox="0 0 19 19" fill="none" xmlns="http://www.w3.org/2000/svg">
<path d="M17.7953 9.14212L10.1236 1.02349L9.60938 0.479024C9.49221 0.355787 9.33377 0.286621 9.16861 0.286621C9.00346 0.286621 8.84501 0.355787 8.72785 0.479024L0.541922 9.14212C0.421865 9.26874 0.326983 9.41955 0.262874 9.58563C0.198766 9.75172 0.166731 9.92972 0.168661 10.1091C0.176603 10.8491 0.758334 11.4398 1.45721 11.4398H2.30101V18.2866H16.0362V11.4398H16.8979C17.2374 11.4398 17.5571 11.299 17.7973 11.0446C17.9156 10.9198 18.0093 10.7713 18.073 10.6078C18.1368 10.4444 18.1692 10.2692 18.1686 10.0923C18.1686 9.73494 18.0355 9.39649 17.7953 9.14212ZM10.2805 16.773H8.05677V12.4846H10.2805V16.773ZM14.6067 9.92624V16.773H11.5511V11.9801C11.5511 11.5155 11.1957 11.1392 10.757 11.1392H7.58027C7.14149 11.1392 6.7861 11.5155 6.7861 11.9801V16.773H3.73052V9.92624H1.82451L9.1706 2.15446L9.62923 2.64007L16.5147 9.92624H14.6067Z" fill="#C4C4C4"/>
</svg>
