<svg width="20" height="20" viewBox="0 0 20 20" fill="none" xmlns="http://www.w3.org/2000/svg">
<g clip-path="url(#clip0_219_194)">
<path d="M10.0002 0.625C5.90649 0.625 2.43774 3.21875 1.15649 6.875H18.844C17.5627 3.21875 14.094 0.625 10.0002 0.625Z" fill="#ED4C5C"/>
<path d="M10.0002 19.375C14.094 19.375 17.5627 16.7812 18.844 13.125H1.15649C2.43774 16.7812 5.90649 19.375 10.0002 19.375Z" fill="#428BC1"/>
<path d="M1.15625 6.875C0.8125 7.84375 0.625 8.90625 0.625 10C0.625 11.0938 0.8125 12.1562 1.15625 13.125H18.8438C19.1875 12.1562 19.375 11.0938 19.375 10C19.375 8.90625 19.1875 7.84375 18.8438 6.875H1.15625Z" fill="white"/>
</g>
<defs>
<clipPath id="clip0_219_194">
<rect width="20" height="20" fill="white"/>
</clipPath>
</defs>
</svg>
