<svg width="20" height="20" viewBox="0 0 20 20" fill="none" xmlns="http://www.w3.org/2000/svg">
<mask id="mask0_219_23" style="mask-type:alpha" maskUnits="userSpaceOnUse" x="3" y="3" width="13" height="13">
<rect x="3.80944" y="3.80957" width="11.4286" height="11.4286" fill="#C4C4C4"/>
</mask>
<g mask="url(#mask0_219_23)">
<path d="M9.89313 15.2381C10.4725 15.2381 11.0023 15.1289 11.4827 14.9105C11.9627 14.6924 12.3752 14.4008 12.7203 14.0358C13.0657 13.6707 13.3336 13.252 13.5241 12.7796C13.7146 12.3075 13.8098 11.8175 13.8098 11.3096V8.21433C13.8098 8.04767 13.7523 7.90687 13.6374 7.79195C13.5222 7.67671 13.3812 7.61909 13.2146 7.61909C13.0479 7.61909 12.9071 7.67671 12.7922 7.79195C12.6769 7.90687 12.6193 8.04767 12.6193 8.21433V10.9524H12.3812C11.9844 10.9524 11.6471 11.0913 11.3693 11.3691C11.0915 11.6469 10.9527 11.9842 10.9527 12.381H10.4765C10.4765 11.9048 10.6312 11.4862 10.9408 11.1253C11.2503 10.764 11.6511 10.5516 12.1431 10.4881V5.35719C12.1431 5.19052 12.0857 5.04957 11.9708 4.93433C11.8555 4.81941 11.7146 4.76195 11.5479 4.76195C11.3812 4.76195 11.2404 4.81941 11.1255 4.93433C11.0103 5.04957 10.9527 5.19052 10.9527 5.35719V9.04767H10.4765V4.40481C10.4765 4.23814 10.4188 4.09719 10.3036 3.98195C10.1887 3.86703 10.0479 3.80957 9.88123 3.80957C9.71456 3.80957 9.57377 3.86703 9.45885 3.98195C9.34361 4.09719 9.28599 4.23814 9.28599 4.40481V9.04767H8.8098V5.11909C8.8098 4.95243 8.75218 4.81148 8.63694 4.69624C8.52202 4.58132 8.38123 4.52386 8.21456 4.52386C8.0479 4.52386 7.9071 4.58132 7.79218 4.69624C7.67694 4.81148 7.61932 4.95243 7.61932 5.11909V9.52386H7.14313V6.54767C7.14313 6.381 7.08567 6.24005 6.97075 6.12481C6.85551 6.00989 6.71456 5.95243 6.5479 5.95243C6.38123 5.95243 6.24044 6.00989 6.12551 6.12481C6.01028 6.24005 5.95266 6.381 5.95266 6.54767V11.3096C5.95266 11.8175 6.04996 12.3096 6.24456 12.7858C6.43885 13.262 6.71059 13.6807 7.0598 14.042C7.40901 14.4029 7.82377 14.6924 8.30409 14.9105C8.78409 15.1289 9.31377 15.2381 9.89313 15.2381Z" fill="white"/>
</g>
<circle cx="10" cy="10" r="9.5" stroke="white"/>
</svg>
